<svg width="250" height="521" viewBox="0 0 250 521" fill="none" xmlns="http://www.w3.org/2000/svg">
<path d="M15.3242 270.014L234.677 271.041" stroke="white" stroke-opacity="0.6" stroke-width="1.48571" stroke-dasharray="14.86 4.95"/>
<path d="M30.0132 251.188L20.647 258.19M30.0132 259.586L20.647 252.577M18.437 253.994C18.7595 253.994 19.0788 253.931 19.3767 253.807C19.6746 253.684 19.9453 253.503 20.1733 253.275C20.4014 253.047 20.5822 252.776 20.7056 252.478C20.829 252.18 20.8926 251.861 20.8926 251.539C20.8926 251.216 20.829 250.897 20.7056 250.599C20.5822 250.301 20.4014 250.03 20.1733 249.802C19.9453 249.574 19.6746 249.393 19.3767 249.27C19.0788 249.147 18.7595 249.083 18.437 249.083C17.7857 249.083 17.1612 249.342 16.7007 249.802C16.2402 250.263 15.9814 250.887 15.9814 251.539C15.9814 252.19 16.2402 252.814 16.7007 253.275C17.1612 253.735 17.7857 253.994 18.437 253.994ZM18.437 261.712C19.0883 261.712 19.7128 261.453 20.1733 260.992C20.6338 260.532 20.8926 259.907 20.8926 259.256C20.8926 258.605 20.6338 257.98 20.1733 257.52C19.7128 257.059 19.0883 256.8 18.437 256.8C17.7857 256.8 17.1612 257.059 16.7007 257.52C16.2402 257.98 15.9814 258.605 15.9814 259.256C15.9814 259.907 16.2402 260.532 16.7007 260.992C17.1612 261.453 17.7857 261.712 18.437 261.712Z" stroke="white" stroke-opacity="0.6" stroke-width="1.48571" stroke-linecap="round" stroke-linejoin="round"/>
</svg>
