<svg width="250" height="521" viewBox="0 0 250 521" fill="none" xmlns="http://www.w3.org/2000/svg">
<path d="M69.4423 128.047H67.2607V125.844H69.4423V124.896C69.4423 123.985 69.67 123.214 70.1254 122.583C70.5808 121.951 71.2198 121.481 72.0424 121.172C72.8651 120.849 73.8273 120.688 74.9291 120.688C75.5461 120.688 76.1484 120.732 76.736 120.82C77.3236 120.908 77.7864 121.011 78.1242 121.128V123.266C77.7717 123.178 77.331 123.097 76.8021 123.023C76.2879 122.935 75.7885 122.891 75.3037 122.891C74.2166 122.891 73.438 123.067 72.9679 123.42C72.4978 123.758 72.2628 124.316 72.2628 125.095V125.844H78.3446V128.047H72.2628V136.729H69.4423V128.047ZM80.5702 125.844H83.3907V136.729H80.5702V125.844ZM80.5041 121.723H83.4789V124.279H80.5041V121.723Z" fill="#3EAE93"/>
<path d="M85.8754 125.844H88.6959L88.6519 129.171H88.6959C88.931 128.466 89.2689 127.856 89.7096 127.342C90.165 126.813 90.7452 126.395 91.4504 126.086C92.1555 125.778 93.0002 125.623 93.9845 125.623C95.145 125.623 96.0925 125.829 96.827 126.24C97.5762 126.652 98.1124 127.232 98.4356 127.981C98.7735 128.716 98.9424 129.605 98.9424 130.648C98.9424 131.411 98.9204 132.058 98.8763 132.587H96.2321C96.2614 132.234 96.2761 131.859 96.2761 131.463C96.2761 130.244 96.0411 129.355 95.571 128.797C95.1009 128.224 94.3003 127.937 93.1691 127.937C92.2436 127.937 91.443 128.158 90.7673 128.598C90.0915 129.024 89.5774 129.59 89.2248 130.295C88.8722 131 88.6959 131.771 88.6959 132.609V136.729H85.8754V125.844Z" fill="#3EAE93"/>
<path d="M107.456 136.95C105.708 136.95 104.349 136.759 103.379 136.377C102.425 135.98 101.778 135.503 101.44 134.944C101.102 134.372 100.934 133.762 100.934 133.116H103.6C103.615 133.483 103.71 133.799 103.886 134.063C104.077 134.313 104.452 134.526 105.01 134.702C105.583 134.864 106.398 134.944 107.456 134.944C108.514 134.944 109.344 134.886 109.946 134.768C110.563 134.636 110.982 134.46 111.202 134.239C111.437 134.019 111.555 133.755 111.555 133.446C111.555 133.138 111.466 132.917 111.29 132.785C111.114 132.653 110.739 132.557 110.166 132.499C109.593 132.425 108.639 132.359 107.302 132.3C105.774 132.227 104.577 132.124 103.71 131.992C102.858 131.845 102.182 131.573 101.683 131.176C101.183 130.765 100.934 130.141 100.934 129.303C100.934 128.584 101.191 127.945 101.705 127.386C102.219 126.813 102.961 126.38 103.93 126.086C104.915 125.778 106.09 125.623 107.456 125.623C109.101 125.623 110.379 125.8 111.29 126.152C112.216 126.49 112.855 126.946 113.207 127.519C113.56 128.091 113.736 128.76 113.736 129.524H111.07C111.055 129.127 110.952 128.789 110.761 128.51C110.585 128.231 110.24 128.018 109.726 127.871C109.212 127.709 108.484 127.629 107.544 127.629C106.677 127.629 105.965 127.687 105.407 127.805C104.849 127.908 104.43 128.077 104.151 128.312C103.886 128.547 103.754 128.833 103.754 129.171C103.754 129.465 103.857 129.685 104.063 129.832C104.283 129.979 104.702 130.089 105.319 130.163C105.936 130.236 106.913 130.302 108.249 130.361C109.748 130.42 110.908 130.523 111.731 130.67C112.568 130.816 113.215 131.096 113.67 131.507C114.14 131.918 114.375 132.535 114.375 133.358C114.375 134.004 114.177 134.592 113.78 135.121C113.384 135.65 112.671 136.09 111.643 136.443C110.629 136.781 109.234 136.95 107.456 136.95Z" fill="#3EAE93"/>
<path d="M123.769 136.884C121.624 136.884 120.081 136.494 119.141 135.716C118.201 134.922 117.731 133.85 117.731 132.499V128.047H115.549V125.844H117.312C117.547 125.844 117.709 125.785 117.797 125.668C117.9 125.535 117.966 125.322 117.995 125.028L118.172 123.376H120.551V125.844H126.765V128.047H120.551V132.366C120.551 132.91 120.654 133.351 120.86 133.688C121.08 134.012 121.44 134.254 121.94 134.416C122.454 134.577 123.166 134.658 124.077 134.658C124.503 134.658 124.966 134.636 125.465 134.592C125.965 134.533 126.369 134.474 126.677 134.416V136.553C126.413 136.626 126.002 136.7 125.443 136.773C124.9 136.847 124.342 136.884 123.769 136.884Z" fill="#3EAE93"/>
<path d="M142.962 136.95C141.155 136.95 139.693 136.685 138.577 136.156C137.475 135.628 136.689 134.944 136.219 134.107C135.764 133.27 135.536 132.359 135.536 131.375C135.536 130.229 135.823 129.223 136.396 128.356C136.968 127.489 137.798 126.821 138.886 126.351C139.973 125.866 141.273 125.623 142.786 125.623C144.328 125.623 145.606 125.844 146.62 126.285C147.634 126.711 148.383 127.328 148.868 128.135C149.367 128.943 149.617 129.92 149.617 131.066V131.948H136.55L136.594 130.251H147.039V130.185C147.039 129.685 146.899 129.245 146.62 128.863C146.341 128.481 145.893 128.18 145.276 127.959C144.659 127.739 143.866 127.629 142.896 127.629C141.824 127.629 140.95 127.776 140.274 128.069C139.598 128.349 139.106 128.767 138.797 129.325C138.504 129.869 138.357 130.552 138.357 131.375C138.357 132.08 138.489 132.697 138.753 133.226C139.032 133.74 139.51 134.159 140.186 134.482C140.861 134.79 141.787 134.944 142.962 134.944C143.873 134.944 144.622 134.864 145.21 134.702C145.797 134.54 146.231 134.327 146.51 134.063C146.804 133.799 146.98 133.505 147.039 133.182H149.617C149.573 133.857 149.308 134.482 148.824 135.055C148.353 135.628 147.626 136.09 146.642 136.443C145.658 136.781 144.431 136.95 142.962 136.95Z" fill="#3EAE93"/>
<path d="M150.18 125.844H153.53L158.598 134.349H158.62L163.644 125.844H166.707L160.096 136.729H156.835L150.18 125.844Z" fill="#3EAE93"/>
<path d="M174.466 136.95C172.659 136.95 171.197 136.685 170.081 136.156C168.979 135.628 168.193 134.944 167.723 134.107C167.268 133.27 167.04 132.359 167.04 131.375C167.04 130.229 167.326 129.223 167.899 128.356C168.472 127.489 169.302 126.821 170.389 126.351C171.476 125.866 172.777 125.623 174.29 125.623C175.832 125.623 177.11 125.844 178.124 126.285C179.137 126.711 179.887 127.328 180.371 128.135C180.871 128.943 181.121 129.92 181.121 131.066V131.948H168.054L168.098 130.251H178.543V130.185C178.543 129.685 178.403 129.245 178.124 128.863C177.845 128.481 177.397 128.18 176.78 127.959C176.163 127.739 175.369 127.629 174.4 127.629C173.327 127.629 172.453 127.776 171.778 128.069C171.102 128.349 170.61 128.767 170.301 129.325C170.007 129.869 169.861 130.552 169.861 131.375C169.861 132.08 169.993 132.697 170.257 133.226C170.536 133.74 171.014 134.159 171.689 134.482C172.365 134.79 173.291 134.944 174.466 134.944C175.377 134.944 176.126 134.864 176.714 134.702C177.301 134.54 177.735 134.327 178.014 134.063C178.307 133.799 178.484 133.505 178.543 133.182H181.121C181.077 133.857 180.812 134.482 180.327 135.055C179.857 135.628 179.13 136.09 178.146 136.443C177.162 136.781 175.935 136.95 174.466 136.95Z" fill="#3EAE93"/>
<path d="M183.227 125.844H186.048L186.004 129.171H186.048C186.283 128.466 186.621 127.856 187.062 127.342C187.517 126.813 188.097 126.395 188.802 126.086C189.508 125.778 190.352 125.623 191.337 125.623C192.497 125.623 193.445 125.829 194.179 126.24C194.928 126.652 195.465 127.232 195.788 127.981C196.126 128.716 196.294 129.605 196.294 130.648C196.294 131.411 196.272 132.058 196.228 132.587H193.584C193.614 132.234 193.628 131.859 193.628 131.463C193.628 130.244 193.393 129.355 192.923 128.797C192.453 128.224 191.652 127.937 190.521 127.937C189.596 127.937 188.795 128.158 188.119 128.598C187.444 129.024 186.929 129.59 186.577 130.295C186.224 131 186.048 131.771 186.048 132.609V136.729H183.227V125.844Z" fill="#3EAE93"/>
<path d="M19.1097 45.5792C21.2621 45.5792 22.6846 44.169 22.6846 41.9301V36.7471H21.324V41.9177C21.324 43.5134 20.4581 44.3793 19.1097 44.3793C17.7614 44.3793 16.8832 43.5134 16.8832 41.9177V36.7471H15.5225V41.9301C15.5225 44.169 16.945 45.5792 19.1097 45.5792Z" fill="#3EAE93"/>
<path d="M24.5934 45.406H25.917V41.7074C25.917 40.656 26.5231 40.0375 27.4385 40.0375C28.3538 40.0375 28.7744 40.7054 28.7744 41.6827V45.406H30.098V41.5095C30.098 39.9261 29.2939 38.8747 27.7848 38.8747C26.8076 38.8747 26.152 39.3324 25.8675 40.0498V39.0231H24.5934V45.406Z" fill="#3EAE93"/>
<path d="M31.9268 37.9964H33.2999V36.5368H31.9268V37.9964ZM31.9515 45.406H33.2751V39.0231H31.9515V45.406Z" fill="#3EAE93"/>
<path d="M36.7956 45.406H38.1811L40.5685 39.0231H39.2449L37.4883 43.9958L35.7318 39.0231H34.4206L36.7956 45.406Z" fill="#3EAE93"/>
<path d="M41.1084 42.2146C41.1084 44.0701 42.2588 45.5545 44.2503 45.5545C45.6729 45.5545 46.7491 44.7257 47.0707 43.5134H45.8337C45.5987 44.0824 45.1162 44.5154 44.2503 44.5154C43.0999 44.5154 42.4567 43.6248 42.3948 42.5115H47.1696V42.0909C47.1696 40.3096 46.1677 38.8747 44.1885 38.8747C42.3948 38.8747 41.1084 40.322 41.1084 42.2146ZM42.432 41.5342C42.5804 40.5941 43.1865 39.8519 44.1761 39.8519C45.1905 39.8519 45.8089 40.557 45.9203 41.5342H42.432Z" fill="#3EAE93"/>
<path d="M48.6205 45.406H49.9441V42.462C49.9441 41.0147 50.711 40.1983 51.8862 40.1983C52.047 40.1983 52.1583 40.1983 52.2944 40.223V38.9984C52.1707 38.9613 51.9851 38.9489 51.7872 38.9489C50.6986 38.9489 50.0925 39.5674 49.8822 40.5075V39.0231H48.6205V45.406Z" fill="#3EAE93"/>
<path d="M55.8882 45.5545C57.3479 45.5545 58.4983 44.738 58.4983 43.4516C58.4983 42.3878 57.8674 41.8187 56.618 41.6085L55.2821 41.3858C54.6265 41.2745 54.3791 41.1137 54.3791 40.6931C54.3791 40.1488 54.8986 39.8396 55.6903 39.8396C56.5314 39.8396 56.952 40.2972 57.051 40.8786H58.288C58.1766 39.6416 57.2118 38.8747 55.6903 38.8747C54.1935 38.8747 53.1668 39.6416 53.1668 40.8044C53.1668 41.7569 53.7606 42.2764 54.9234 42.4743L56.2346 42.697C56.9644 42.8207 57.2736 43.1052 57.2736 43.5629C57.2736 44.169 56.7541 44.5896 55.8882 44.5896C54.9357 44.5896 54.4162 44.0824 54.2677 43.365H53.0308C53.2534 44.7257 54.3049 45.5545 55.8882 45.5545Z" fill="#3EAE93"/>
<path d="M59.9041 37.9964H61.2771V36.5368H59.9041V37.9964ZM59.9288 45.406H61.2524V39.0231H59.9288V45.406Z" fill="#3EAE93"/>
<path d="M65.5398 45.4802C65.9728 45.4802 66.4057 45.4308 66.6284 45.3318V44.2432C66.4428 44.2927 66.1707 44.3546 65.8615 44.3546C65.2182 44.3546 64.909 44.0082 64.909 43.365V40.1117H66.616V39.0231H64.909V37.3285H63.5854V39.0231H62.4597V40.1117H63.5854V43.365C63.5854 44.7628 64.241 45.4802 65.5398 45.4802Z" fill="#3EAE93"/>
<path d="M68.3932 47.8305C69.7787 47.8305 70.3229 47.0512 70.8177 45.7153L70.9291 45.406L73.2422 39.0231H71.9063L70.2611 43.8598L68.5417 39.0231H67.2057L69.5807 45.3565L69.5313 45.505C69.2715 46.2224 68.9746 46.6925 68.1953 46.6925C67.9603 46.6925 67.7253 46.6554 67.515 46.5935V47.7068C67.7871 47.7934 68.0592 47.8305 68.3932 47.8305Z" fill="#3EAE93"/>
<path d="M79.7422 45.5545C81.5977 45.5545 82.9213 44.0577 82.9213 42.2146C82.9213 40.3715 81.5977 38.8747 79.7422 38.8747C77.8868 38.8747 76.5632 40.3715 76.5632 42.2146C76.5632 44.0577 77.8868 45.5545 79.7422 45.5545ZM79.7422 44.4288C78.5795 44.4288 77.8868 43.3402 77.8868 42.2146C77.8868 41.0889 78.5795 39.988 79.7422 39.988C80.905 39.988 81.5977 41.0889 81.5977 42.2146C81.5977 43.3402 80.905 44.4288 79.7422 44.4288Z" fill="#3EAE93"/>
<path d="M84.7257 45.406H86.0493V40.1117H87.6202V39.0231H86.0493V38.4665C86.0493 37.6996 86.4204 37.2914 87.1626 37.2914C87.3976 37.2914 87.5955 37.3037 87.7192 37.3408V36.3018C87.5584 36.2523 87.2491 36.2275 86.9152 36.2275C85.3937 36.2275 84.7257 37.0563 84.7257 38.516V39.0231H83.699V40.1117H84.7257V45.406Z" fill="#3EAE93"/>
<path d="M91.5908 45.406H95.3512C97.2067 45.406 98.3695 44.4906 98.3695 42.9815C98.3695 41.9424 97.7015 41.0765 96.6006 40.8786C97.5778 40.557 98.0355 39.8643 98.0355 38.9118C98.0355 37.6253 97.0459 36.7471 95.3512 36.7471H91.5908V45.406ZM92.9144 40.3467V37.8727H95.1286C96.1429 37.8727 96.6872 38.3304 96.6872 39.0603C96.6872 39.8519 96.0934 40.3467 95.0544 40.3467H92.9144ZM92.9144 44.2804V41.4848H95.2152C96.3779 41.4848 97.0336 42.029 97.0336 42.8949C97.0336 43.8103 96.3161 44.2804 95.2275 44.2804H92.9144Z" fill="#3EAE93"/>
<path d="M99.8768 37.9964H101.25V36.5368H99.8768V37.9964ZM99.9015 45.406H101.225V39.0231H99.9015V45.406Z" fill="#3EAE93"/>
<path d="M103.138 45.406H104.461V42.462C104.461 41.0147 105.228 40.1983 106.403 40.1983C106.564 40.1983 106.675 40.1983 106.811 40.223V38.9984C106.688 38.9613 106.502 38.9489 106.304 38.9489C105.216 38.9489 104.61 39.5674 104.399 40.5075V39.0231H103.138V45.406Z" fill="#3EAE93"/>
<path d="M108.018 45.406H109.341V41.695C109.341 40.6312 109.898 40.0375 110.776 40.0375C111.667 40.0375 112.088 40.6683 112.088 41.6456V45.406H113.411V41.695C113.411 40.6312 113.955 40.0375 114.834 40.0375C115.737 40.0375 116.157 40.6683 116.157 41.6456V45.406H117.481V41.4353C117.481 39.889 116.714 38.8747 115.192 38.8747C114.19 38.8747 113.51 39.3324 113.127 40.0251C112.78 39.32 112.137 38.8747 111.147 38.8747C110.207 38.8747 109.576 39.3448 109.292 40.0746V39.0231H108.018V45.406Z" fill="#3EAE93"/>
<path d="M119.314 37.9964H120.687V36.5368H119.314V37.9964ZM119.338 45.406H120.662V39.0231H119.338V45.406Z" fill="#3EAE93"/>
<path d="M122.574 45.406H123.898V41.7074C123.898 40.656 124.504 40.0375 125.419 40.0375C126.335 40.0375 126.755 40.7054 126.755 41.6827V45.406H128.079V41.5095C128.079 39.9261 127.275 38.8747 125.766 38.8747C124.788 38.8747 124.133 39.3324 123.848 40.0498V39.0231H122.574V45.406Z" fill="#3EAE93"/>
<path d="M129.425 42.0043C129.425 43.7979 130.6 45.1462 132.283 45.1462C133.285 45.1462 134.052 44.5649 134.287 43.8969V44.8741C134.287 46.1235 133.817 46.8038 132.604 46.8038C131.738 46.8038 131.145 46.3461 130.934 45.6782H129.574C129.871 46.9894 131.021 47.8305 132.617 47.8305C134.435 47.8305 135.61 46.8286 135.61 45.0968V39.0231H134.311V40.087C134.039 39.4066 133.285 38.8747 132.283 38.8747C130.6 38.8747 129.425 40.2107 129.425 42.0043ZM130.736 42.0043C130.736 40.8291 131.429 39.9261 132.542 39.9261C133.532 39.9261 134.287 40.7673 134.287 42.0043C134.287 43.2537 133.569 44.0824 132.542 44.0824C131.442 44.0824 130.736 43.1794 130.736 42.0043Z" fill="#3EAE93"/>
<path d="M137.469 45.406H138.792V41.7074C138.792 40.6436 139.399 40.0375 140.314 40.0375C141.217 40.0375 141.65 40.6931 141.65 41.6579V45.406H142.973V41.4848C142.973 39.9138 142.157 38.8747 140.66 38.8747C139.745 38.8747 139.065 39.3076 138.792 40.0375V36.376H137.469V45.406Z" fill="#3EAE93"/>
<path d="M144.555 43.5505C144.555 44.7504 145.433 45.5545 146.806 45.5545C147.82 45.5545 148.538 45.0597 148.785 44.4535V45.406H150.072V41.2374C150.072 39.8148 149.156 38.8747 147.437 38.8747C145.977 38.8747 144.988 39.7035 144.79 40.9157H146.076C146.175 40.3344 146.658 39.889 147.449 39.889C148.315 39.889 148.748 40.3838 148.748 41.1879V41.4229L146.954 41.5466C145.396 41.6579 144.555 42.3383 144.555 43.5505ZM145.841 43.5134C145.841 42.8207 146.373 42.4867 147.301 42.4249L148.748 42.3259V42.8578C148.748 43.9711 148.068 44.6143 147.103 44.6143C146.274 44.6143 145.841 44.169 145.841 43.5134Z" fill="#3EAE93"/>
<path d="M151.868 45.406H153.192V41.695C153.192 40.6312 153.748 40.0375 154.627 40.0375C155.517 40.0375 155.938 40.6683 155.938 41.6456V45.406H157.262V41.695C157.262 40.6312 157.806 40.0375 158.684 40.0375C159.587 40.0375 160.008 40.6683 160.008 41.6456V45.406H161.331V41.4353C161.331 39.889 160.564 38.8747 159.043 38.8747C158.041 38.8747 157.361 39.3324 156.977 40.0251C156.631 39.32 155.987 38.8747 154.998 38.8747C154.058 38.8747 153.427 39.3448 153.142 40.0746V39.0231H151.868V45.406Z" fill="#3EAE93"/>
<path d="M90.7504 412.673C88.5569 412.673 86.9793 412.275 86.0178 411.479C85.0562 410.668 84.5755 409.571 84.5755 408.189V403.636H82.3444V401.383H84.1473C84.3877 401.383 84.5529 401.323 84.6431 401.202C84.7482 401.067 84.8158 400.849 84.8459 400.549L85.0262 398.859H87.4601V401.383H93.8153V403.636H87.4601V408.053C87.4601 408.609 87.5653 409.06 87.7756 409.406C88.001 409.736 88.3691 409.984 88.8799 410.149C89.4057 410.315 90.1344 410.397 91.0659 410.397C91.5016 410.397 91.9749 410.375 92.4857 410.33C92.9965 410.27 93.4097 410.209 93.7252 410.149V412.335C93.4548 412.41 93.0341 412.486 92.4632 412.561C91.9073 412.636 91.3363 412.673 90.7504 412.673Z" fill="#3EAE93"/>
<path d="M102.721 412.741C100.873 412.741 99.3783 412.471 98.2365 411.93C97.1097 411.389 96.3059 410.69 95.8251 409.834C95.3594 408.977 95.1265 408.046 95.1265 407.039C95.1265 405.867 95.4195 404.838 96.0054 403.952C96.5914 403.065 97.4402 402.382 98.552 401.901C99.6638 401.405 100.993 401.157 102.541 401.157C104.118 401.157 105.426 401.383 106.462 401.833C107.499 402.269 108.265 402.9 108.761 403.726C109.272 404.553 109.527 405.552 109.527 406.724V407.625H96.1632L96.2082 405.89H106.89V405.822C106.89 405.312 106.748 404.861 106.462 404.47C106.177 404.08 105.719 403.772 105.088 403.546C104.457 403.321 103.645 403.208 102.654 403.208C101.557 403.208 100.663 403.358 99.9718 403.659C99.2807 403.944 98.7774 404.373 98.4619 404.943C98.1614 405.499 98.0111 406.198 98.0111 407.039C98.0111 407.76 98.1464 408.391 98.4168 408.932C98.7023 409.458 99.1905 409.886 99.8817 410.217C100.573 410.532 101.519 410.69 102.721 410.69C103.653 410.69 104.419 410.608 105.02 410.442C105.621 410.277 106.064 410.059 106.35 409.789C106.65 409.518 106.83 409.218 106.89 408.887H109.527C109.482 409.578 109.212 410.217 108.716 410.803C108.235 411.389 107.491 411.862 106.485 412.223C105.478 412.568 104.224 412.741 102.721 412.741Z" fill="#3EAE93"/>
<path d="M111.682 401.383H114.567L114.521 404.786H114.567C114.807 404.065 115.152 403.441 115.603 402.915C116.069 402.374 116.662 401.946 117.384 401.631C118.105 401.315 118.969 401.157 119.975 401.157C121.162 401.157 122.131 401.368 122.882 401.788C123.649 402.209 124.197 402.802 124.528 403.569C124.873 404.32 125.046 405.229 125.046 406.296C125.046 407.077 125.023 407.738 124.978 408.279H122.274C122.304 407.918 122.319 407.535 122.319 407.129C122.319 405.882 122.079 404.973 121.598 404.403C121.117 403.817 120.298 403.524 119.141 403.524C118.195 403.524 117.376 403.749 116.685 404.2C115.994 404.635 115.468 405.214 115.107 405.935C114.747 406.656 114.567 407.445 114.567 408.301V412.516H111.682V401.383Z" fill="#3EAE93"/>
<path d="M127.308 401.383H130.192L130.147 404.786H130.192C130.433 404.065 130.778 403.441 131.229 402.915C131.695 402.374 132.288 401.946 133.009 401.631C133.73 401.315 134.594 401.157 135.601 401.157C136.788 401.157 137.757 401.368 138.508 401.788C139.274 402.209 139.823 402.802 140.153 403.569C140.499 404.32 140.672 405.229 140.672 406.296C140.672 407.077 140.649 407.738 140.604 408.279H137.9C137.93 407.918 137.945 407.535 137.945 407.129C137.945 405.882 137.704 404.973 137.224 404.403C136.743 403.817 135.924 403.524 134.767 403.524C133.821 403.524 133.002 403.749 132.311 404.2C131.62 404.635 131.094 405.214 130.733 405.935C130.373 406.656 130.192 407.445 130.192 408.301V412.516H127.308V401.383Z" fill="#3EAE93"/>
<path d="M143.069 401.383H145.953V412.516H143.069V401.383ZM143.001 397.168H146.043V399.783H143.001V397.168Z" fill="#3EAE93"/>
<path d="M157.223 412.741C156.006 412.741 154.984 412.621 154.158 412.38C153.332 412.125 152.701 411.802 152.265 411.411C151.829 411.006 151.529 410.555 151.363 410.059H151.341C151.341 410.33 151.348 410.615 151.363 410.916C151.379 411.201 151.394 411.479 151.409 411.749C151.424 412.02 151.439 412.275 151.454 412.516H148.569V396.74H151.454V402.374C151.454 402.975 151.439 403.569 151.409 404.155H151.454C151.664 403.569 151.987 403.05 152.423 402.6C152.873 402.149 153.482 401.796 154.248 401.54C155.029 401.285 155.968 401.157 157.065 401.157C158.583 401.157 159.86 401.398 160.896 401.879C161.948 402.344 162.737 402.998 163.263 403.839C163.804 404.681 164.074 405.657 164.074 406.769C164.074 407.986 163.796 409.045 163.24 409.946C162.699 410.848 161.91 411.539 160.874 412.02C159.852 412.501 158.635 412.741 157.223 412.741ZM156.592 410.487C157.629 410.487 158.485 410.345 159.161 410.059C159.852 409.759 160.363 409.338 160.694 408.797C161.024 408.241 161.189 407.58 161.189 406.814C161.189 406.168 161.032 405.589 160.716 405.079C160.401 404.568 159.897 404.162 159.206 403.862C158.515 403.561 157.651 403.411 156.614 403.411C155.593 403.411 154.691 403.576 153.91 403.907C153.129 404.237 152.52 404.688 152.085 405.259C151.664 405.83 151.454 406.476 151.454 407.197V407.332C151.454 407.873 151.649 408.384 152.04 408.865C152.43 409.331 153.016 409.721 153.797 410.037C154.579 410.337 155.51 410.487 156.592 410.487Z" fill="#3EAE93"/>
<path d="M166.308 396.74H169.192V412.516H166.308V396.74Z" fill="#3EAE93"/>
<path d="M179.023 412.741C177.175 412.741 175.68 412.471 174.539 411.93C173.412 411.389 172.608 410.69 172.127 409.834C171.661 408.977 171.429 408.046 171.429 407.039C171.429 405.867 171.722 404.838 172.307 403.952C172.893 403.065 173.742 402.382 174.854 401.901C175.966 401.405 177.296 401.157 178.843 401.157C180.421 401.157 181.728 401.383 182.764 401.833C183.801 402.269 184.567 402.9 185.063 403.726C185.574 404.553 185.829 405.552 185.829 406.724V407.625H172.465L172.51 405.89H183.193V405.822C183.193 405.312 183.05 404.861 182.764 404.47C182.479 404.08 182.021 403.772 181.39 403.546C180.759 403.321 179.947 403.208 178.956 403.208C177.859 403.208 176.965 403.358 176.274 403.659C175.583 403.944 175.079 404.373 174.764 404.943C174.463 405.499 174.313 406.198 174.313 407.039C174.313 407.76 174.448 408.391 174.719 408.932C175.004 409.458 175.493 409.886 176.184 410.217C176.875 410.532 177.821 410.69 179.023 410.69C179.955 410.69 180.721 410.608 181.322 410.442C181.923 410.277 182.366 410.059 182.652 409.789C182.952 409.518 183.132 409.218 183.193 408.887H185.829C185.784 409.578 185.514 410.217 185.018 410.803C184.537 411.389 183.793 411.862 182.787 412.223C181.78 412.568 180.526 412.741 179.023 412.741Z" fill="#3EAE93"/>
<path d="M23.9558 437.673C21.7623 437.673 20.1848 437.275 19.2232 436.479C18.2617 435.668 17.7809 434.571 17.7809 433.189V428.636H15.5498V426.383H17.3527C17.5931 426.383 17.7584 426.323 17.8485 426.202C17.9537 426.067 18.0213 425.849 18.0513 425.549L18.2316 423.859H20.6655V426.383H27.0208V428.636H20.6655V433.053C20.6655 433.609 20.7707 434.06 20.9811 434.406C21.2064 434.736 21.5745 434.984 22.0853 435.149C22.6112 435.315 23.3398 435.397 24.2713 435.397C24.707 435.397 25.1803 435.375 25.6911 435.33C26.202 435.27 26.6151 435.209 26.9306 435.149V437.335C26.6602 437.41 26.2395 437.486 25.6686 437.561C25.1127 437.636 24.5418 437.673 23.9558 437.673Z" fill="#3EAE93"/>
<path d="M28.6647 434.225C28.6647 433.519 28.845 432.941 29.2056 432.49C29.5661 432.024 30.0845 431.686 30.7606 431.476C31.4367 431.266 32.263 431.16 33.2396 431.16H39.9328V430.935C39.9328 430.304 39.7826 429.793 39.4821 429.403C39.1966 428.997 38.7384 428.696 38.1074 428.501C37.4764 428.306 36.65 428.208 35.6284 428.208C34.2612 428.208 33.2771 428.373 32.6762 428.704C32.0752 429.019 31.7747 429.44 31.7747 429.966C31.7897 430.056 31.7972 430.146 31.7972 430.236H29.0478C29.0478 430.101 29.0403 429.966 29.0253 429.831C29.0253 429.095 29.2581 428.456 29.7239 427.915C30.2047 427.359 30.9409 426.931 31.9325 426.631C32.9391 426.315 34.1936 426.157 35.696 426.157C37.2585 426.157 38.5656 426.36 39.6173 426.766C40.684 427.171 41.4803 427.75 42.0062 428.501C42.547 429.252 42.8175 430.154 42.8175 431.205V437.516H39.9328C39.9629 437.08 39.9854 436.629 40.0004 436.163C40.0305 435.683 40.053 435.239 40.0681 434.834H40.0455C39.8652 435.45 39.5497 435.976 39.099 436.411C38.6633 436.832 38.0398 437.155 37.2285 437.38C36.4322 437.606 35.4256 437.718 34.2086 437.718C32.9316 437.718 31.8724 437.561 31.031 437.245C30.2047 436.915 29.6037 436.486 29.2281 435.961C28.8525 435.435 28.6647 434.856 28.6647 434.225ZM34.772 435.69C35.8988 435.69 36.8454 435.555 37.6116 435.285C38.3929 435.014 38.9713 434.676 39.3469 434.27C39.7375 433.85 39.9328 433.407 39.9328 432.941V432.873H33.9156C33.2846 432.873 32.7813 432.903 32.4057 432.963C32.0451 433.023 31.7672 433.144 31.5719 433.324C31.3916 433.504 31.3014 433.767 31.3014 434.113C31.3014 434.563 31.5493 434.939 32.0451 435.239C32.556 435.54 33.4649 435.69 34.772 435.69Z" fill="#3EAE93"/>
<path d="M51.5308 437.741C49.7429 437.741 48.3531 437.546 47.3615 437.155C46.385 436.749 45.7239 436.261 45.3783 435.69C45.0328 435.104 44.86 434.481 44.86 433.82H47.5869C47.6019 434.195 47.6996 434.518 47.8799 434.789C48.0752 435.044 48.4583 435.262 49.0292 435.442C49.6152 435.608 50.449 435.69 51.5308 435.69C52.6125 435.69 53.4614 435.63 54.0774 435.51C54.7084 435.375 55.1366 435.194 55.3619 434.969C55.6023 434.744 55.7225 434.473 55.7225 434.158C55.7225 433.842 55.6324 433.617 55.4521 433.482C55.2718 433.346 54.8887 433.249 54.3027 433.189C53.7168 433.114 52.7402 433.046 51.373 432.986C49.8105 432.911 48.586 432.806 47.6996 432.67C46.8282 432.52 46.1371 432.242 45.6262 431.836C45.1154 431.416 44.86 430.777 44.86 429.921C44.86 429.185 45.1229 428.531 45.6488 427.96C46.1746 427.374 46.9333 426.931 47.9249 426.631C48.9316 426.315 50.1335 426.157 51.5308 426.157C53.2135 426.157 54.5206 426.338 55.4521 426.698C56.3986 427.044 57.0521 427.51 57.4127 428.095C57.7733 428.681 57.9536 429.365 57.9536 430.146H55.2267C55.2117 429.741 55.1065 429.395 54.9112 429.11C54.7309 428.824 54.3778 428.606 53.852 428.456C53.3261 428.291 52.5824 428.208 51.6209 428.208C50.7345 428.208 50.0058 428.268 49.4349 428.388C48.864 428.494 48.4358 428.666 48.1503 428.907C47.8799 429.147 47.7447 429.44 47.7447 429.786C47.7447 430.086 47.8498 430.312 48.0602 430.462C48.2855 430.612 48.7137 430.725 49.3447 430.8C49.9757 430.875 50.9749 430.943 52.3421 431.003C53.8745 431.063 55.0614 431.168 55.9028 431.318C56.7592 431.468 57.4202 431.754 57.886 432.175C58.3668 432.595 58.6071 433.226 58.6071 434.068C58.6071 434.729 58.4043 435.33 57.9987 435.87C57.593 436.411 56.8643 436.862 55.8126 437.223C54.776 437.568 53.3487 437.741 51.5308 437.741Z" fill="#3EAE93"/>
<path d="M68.2141 437.673C66.0206 437.673 64.443 437.275 63.4815 436.479C62.5199 435.668 62.0392 434.571 62.0392 433.189V428.636H59.8081V426.383H61.611C61.8514 426.383 62.0166 426.323 62.1068 426.202C62.212 426.067 62.2796 425.849 62.3096 425.549L62.4899 423.859H64.9238V426.383H71.279V428.636H64.9238V433.053C64.9238 433.609 65.029 434.06 65.2393 434.406C65.4647 434.736 65.8328 434.984 66.3436 435.149C66.8694 435.315 67.5981 435.397 68.5296 435.397C68.9653 435.397 69.4386 435.375 69.9494 435.33C70.4602 435.27 70.8734 435.209 71.1889 435.149V437.335C70.9185 437.41 70.4978 437.486 69.9269 437.561C69.371 437.636 68.8001 437.673 68.2141 437.673Z" fill="#3EAE93"/>
<path d="M80.1849 437.741C78.337 437.741 76.8421 437.471 75.7002 436.93C74.5734 436.389 73.7696 435.69 73.2888 434.834C72.8231 433.977 72.5902 433.046 72.5902 432.039C72.5902 430.867 72.8832 429.838 73.4691 428.952C74.0551 428.065 74.9039 427.382 76.0157 426.901C77.1275 426.405 78.4572 426.157 80.0046 426.157C81.5822 426.157 82.8893 426.383 83.926 426.833C84.9626 427.269 85.7289 427.9 86.2247 428.726C86.7355 429.553 86.9909 430.552 86.9909 431.724V432.625H73.6269L73.6719 430.89H84.3541V430.822C84.3541 430.312 84.2114 429.861 83.926 429.47C83.6405 429.08 83.1823 428.772 82.5512 428.546C81.9202 428.321 81.1089 428.208 80.1173 428.208C79.0206 428.208 78.1266 428.358 77.4355 428.659C76.7444 428.944 76.2411 429.373 75.9256 429.943C75.6251 430.499 75.4748 431.198 75.4748 432.039C75.4748 432.76 75.6101 433.391 75.8805 433.932C76.166 434.458 76.6543 434.886 77.3454 435.217C78.0365 435.532 78.983 435.69 80.1849 435.69C81.1164 435.69 81.8827 435.608 82.4836 435.442C83.0846 435.277 83.5278 435.059 83.8133 434.789C84.1138 434.518 84.2941 434.218 84.3541 433.887H86.9909C86.9458 434.578 86.6754 435.217 86.1796 435.803C85.6988 436.389 84.9551 436.862 83.9485 437.223C82.9419 437.568 81.6874 437.741 80.1849 437.741Z" fill="#3EAE93"/>
<path d="M90.2048 434.451H93.2246V437.516H90.2048V434.451Z" fill="#3EAE93"/>
<path d="M97.7315 434.451H100.751V437.516H97.7315V434.451Z" fill="#3EAE93"/>
<path d="M105.258 434.451H108.278V437.516H105.258V434.451Z" fill="#3EAE93"/>
<path d="M60.2626 504.913C59.5554 504.913 58.9462 504.812 58.4351 504.61C57.93 504.408 57.5407 504.105 57.2674 503.701C56.9999 503.291 56.8662 502.782 56.8662 502.176V498.94H58.0964V502.034C58.0964 502.462 58.1825 502.815 58.3549 503.094C58.5272 503.368 58.7739 503.573 59.0948 503.71C59.4216 503.84 59.8228 503.906 60.2982 503.906C60.7796 503.906 61.1837 503.84 61.5105 503.71C61.8433 503.573 62.0959 503.368 62.2683 503.094C62.4406 502.815 62.5268 502.462 62.5268 502.034V498.94H63.65V502.176C63.65 502.782 63.5163 503.291 63.2488 503.701C62.9814 504.111 62.5951 504.417 62.09 504.619C61.5908 504.815 60.9816 504.913 60.2626 504.913Z" fill="#3EAE93"/>
<path d="M67.5973 504.895C66.902 504.895 66.3285 504.791 65.8769 504.583C65.4252 504.369 65.0954 504.09 64.8874 503.745C64.6794 503.401 64.5754 503.023 64.5754 502.613C64.5754 502.203 64.6794 501.826 64.8874 501.481C65.1013 501.13 65.4341 500.848 65.8858 500.634C66.3374 500.42 66.908 500.313 67.5973 500.313C68.2867 500.313 68.8572 500.42 69.3089 500.634C69.7605 500.848 70.0904 501.13 70.2984 501.481C70.5123 501.826 70.6193 502.203 70.6193 502.613C70.6193 503.023 70.5153 503.401 70.3073 503.745C70.0993 504.09 69.7694 504.369 69.3178 504.583C68.8661 504.791 68.2926 504.895 67.5973 504.895ZM67.5973 504.004C68.0312 504.004 68.3877 503.941 68.667 503.817C68.9523 503.692 69.1573 503.525 69.2821 503.317C69.4129 503.103 69.4782 502.869 69.4782 502.613C69.4782 502.352 69.4129 502.117 69.2821 501.909C69.1573 501.701 68.9523 501.532 68.667 501.401C68.3877 501.27 68.0312 501.205 67.5973 501.205C67.1576 501.205 66.798 501.27 66.5187 501.401C66.2394 501.532 66.0344 501.701 65.9036 501.909C65.7788 502.117 65.7164 502.352 65.7164 502.613C65.7164 502.869 65.7788 503.1 65.9036 503.308C66.0344 503.516 66.2394 503.686 66.5187 503.817C66.798 503.941 67.1576 504.004 67.5973 504.004Z" fill="#3EAE93"/>
<path d="M71.5969 498.94H75.2963C75.8728 498.94 76.3334 499.009 76.6781 499.145C77.0287 499.276 77.2783 499.457 77.4269 499.689C77.5814 499.915 77.6586 500.177 77.6586 500.474C77.6586 500.777 77.5725 501.044 77.4001 501.276C77.2278 501.502 76.9782 501.653 76.6513 501.731V501.74C76.9366 501.787 77.1773 501.876 77.3734 502.007C77.5695 502.132 77.7151 502.289 77.8102 502.479C77.9112 502.67 77.9617 502.869 77.9617 503.077C77.9617 503.433 77.8815 503.739 77.721 503.995C77.5665 504.25 77.311 504.449 76.9544 504.592C76.6038 504.735 76.1432 504.806 75.5727 504.806H71.5969V498.94ZM75.4122 503.879C75.745 503.879 76.0125 503.843 76.2145 503.772C76.4225 503.701 76.5711 503.597 76.6602 503.46C76.7553 503.323 76.8029 503.16 76.8029 502.97C76.8029 502.821 76.7523 502.69 76.6513 502.577C76.5562 502.465 76.4106 502.375 76.2145 502.31C76.0243 502.245 75.7926 502.212 75.5192 502.212H72.8271V503.879H75.4122ZM75.4657 501.401C75.7034 501.401 75.9055 501.371 76.0719 501.312C76.2442 501.246 76.372 501.157 76.4552 501.044C76.5384 500.931 76.58 500.795 76.58 500.634C76.58 500.474 76.5325 500.337 76.4374 500.224C76.3482 500.111 76.2026 500.025 76.0006 499.966C75.8045 499.9 75.5459 499.868 75.225 499.868H72.8271V501.401H75.4657Z" fill="#3EAE93"/>
</svg>
